<svg width="31" height="31" viewBox="0 0 31 31" fill="none" xmlns="http://www.w3.org/2000/svg">
<path d="M18.7111 4.05957C19.0408 4.1523 19.3201 4.37217 19.4877 4.67082C19.6554 4.96948 19.6975 5.32247 19.6049 5.6522L13.8828 26.045C13.837 26.2084 13.7595 26.3611 13.6547 26.4945C13.5499 26.6279 13.4198 26.7393 13.2719 26.8224C13.124 26.9056 12.9612 26.9587 12.7928 26.9789C12.6243 26.9991 12.4536 26.986 12.2902 26.9402C12.1269 26.8944 11.9741 26.8168 11.8407 26.712C11.7074 26.6072 11.5959 26.4771 11.5128 26.3292C11.4297 26.1813 11.3765 26.0185 11.3563 25.8501C11.3361 25.6816 11.3493 25.5109 11.3951 25.3475L17.1172 4.9547C17.1629 4.7912 17.2405 4.63832 17.3454 4.50482C17.4503 4.37132 17.5805 4.25981 17.7285 4.17667C17.8766 4.09354 18.0396 4.0404 18.2082 4.02031C18.3768 4.00021 18.5477 4.01356 18.7111 4.05957ZM9.30904 9.10612C9.55119 9.34834 9.68723 9.67682 9.68723 10.0193C9.68723 10.3618 9.55119 10.6903 9.30904 10.9325L4.743 15.4999L9.30904 20.0659C9.42905 20.1858 9.52427 20.3282 9.58925 20.4849C9.65423 20.6417 9.6877 20.8096 9.68776 20.9793C9.68782 21.149 9.65447 21.317 9.5896 21.4737C9.52473 21.6305 9.42961 21.773 9.30969 21.893C9.18976 22.013 9.04738 22.1082 8.89066 22.1732C8.73393 22.2382 8.56595 22.2716 8.39629 22.2717C8.22663 22.2717 8.05862 22.2384 7.90186 22.1735C7.74509 22.1087 7.60264 22.0135 7.48263 21.8936L2.00208 16.4131C1.75993 16.1709 1.6239 15.8424 1.6239 15.4999C1.6239 15.1574 1.75993 14.8289 2.00208 14.5867L7.48263 9.10612C7.72485 8.86396 8.05333 8.72793 8.39583 8.72793C8.73834 8.72793 9.06682 8.86396 9.30904 9.10612ZM21.691 10.9325C21.5676 10.8134 21.4692 10.6709 21.4015 10.5133C21.3338 10.3557 21.2982 10.1862 21.2967 10.0147C21.2952 9.84317 21.3279 9.67308 21.3928 9.51434C21.4578 9.3556 21.5537 9.21138 21.675 9.0901C21.7962 8.96883 21.9404 8.87292 22.0992 8.80797C22.2579 8.74302 22.428 8.71034 22.5995 8.71183C22.771 8.71332 22.9405 8.74896 23.0981 8.81665C23.2557 8.88435 23.3982 8.98275 23.5174 9.10612L28.9979 14.5867C29.2401 14.8289 29.3761 15.1574 29.3761 15.4999C29.3761 15.8424 29.2401 16.1709 28.9979 16.4131L23.5174 21.8936C23.275 22.1358 22.9464 22.2718 22.6037 22.2717C22.2611 22.2716 21.9325 22.1353 21.6903 21.893C21.4481 21.6506 21.3121 21.3219 21.3122 20.9793C21.3124 20.6367 21.4486 20.3081 21.691 20.0659L26.257 15.4999L21.691 10.9325Z" fill="white"/>
</svg>
