<svg width="48" height="49" viewBox="0 0 48 49" fill="none" xmlns="http://www.w3.org/2000/svg">
<path d="M32.1175 43.3634V37.7809C32.1918 36.8537 32.0644 35.9212 31.7436 35.0459C31.4229 34.1706 30.9164 33.3723 30.2578 32.7047C36.4705 32.0238 43 29.7093 43 19.0893C42.9992 16.3738 41.9367 13.7623 40.032 11.7955C40.9339 9.4197 40.8702 6.79356 39.8538 4.46275C39.8538 4.46275 37.5192 3.78201 32.1175 7.3415C27.5825 6.13328 22.8023 6.13328 18.2673 7.3415C12.8657 3.78201 10.5308 4.46275 10.5308 4.46275C9.51454 6.79356 9.4508 9.4197 10.3528 11.7955C8.43378 13.7769 7.37003 16.4119 7.38489 19.1478C7.38489 29.6897 13.9144 32.0042 20.1272 32.7628C19.4761 33.4242 18.9741 34.2129 18.6538 35.0773C18.3333 35.9419 18.2016 36.8632 18.2673 37.7809V43.3634" stroke="white" stroke-width="2" stroke-linecap="round" stroke-linejoin="round"/>
<path d="M18.2676 39.4729C12.3317 41.3657 7.38512 39.4728 4.41718 33.6377" stroke="white" stroke-width="2" stroke-linecap="round" stroke-linejoin="round"/>
</svg>
