<svg width="94" height="92" viewBox="0 0 94 92" fill="none" xmlns="http://www.w3.org/2000/svg">
<path d="M73.7188 7H20.2812C12.9462 7 7 12.9367 7 20.26V71.6152C7 78.9385 12.9462 84.8752 20.2812 84.8752H73.7188C81.0538 84.8752 87 78.9385 87 71.6152V20.26C87 12.9367 81.0538 7 73.7188 7Z" fill="#00005B"/>
<path d="M39.1384 53.5921H26.7412L24.2187 61.4299C24.1864 61.5642 24.1107 61.6842 24.0034 61.7714C23.896 61.8586 23.763 61.9082 23.6247 61.9125L17.2959 61.9122C16.9376 61.9122 16.8124 61.7156 16.9203 61.3225L27.6537 30.5877L27.7609 30.2648L27.7965 30.1544L27.8684 29.9235C27.904 29.8043 27.9397 29.6779 27.9756 29.541C28.1162 28.8262 28.1881 28.0995 28.1903 27.371C28.183 27.3201 28.1877 27.2681 28.2041 27.2193C28.2204 27.1705 28.2478 27.1262 28.2843 27.0898C28.3207 27.0534 28.3651 27.026 28.414 27.0097C28.4629 26.9934 28.5149 26.9887 28.5659 26.996H37.099C37.349 26.996 37.4922 27.0853 37.5284 27.264L49.7106 61.3765C49.8179 61.7338 49.7106 61.9124 49.3887 61.9122H42.4118C42.2921 61.9253 42.1716 61.8944 42.0729 61.8255C41.9742 61.7565 41.904 61.654 41.8753 61.5372L39.1384 53.5921ZM28.6734 46.9836H37.1528L37.0318 46.5852L36.8378 45.9543L36.5537 45.0508L36.0084 43.3451L35.489 41.7058L34.5228 38.6517C34.2558 37.8086 33.9995 36.9622 33.754 36.1126L33.4797 35.1467L33.1834 34.088L32.9128 33.1062H32.859C32.5904 34.3923 32.2634 35.6655 31.879 36.9219L31.5165 38.0835L30.6447 40.8915L30.2028 42.322C30.123 42.5804 30.0433 42.8358 29.9637 43.0883L29.7262 43.8365L29.49 44.5672L29.255 45.2798L29.0212 45.9746C28.9048 46.3178 28.7888 46.6542 28.6734 46.9836ZM69.4603 50.5417H58.8881C59.0174 51.586 59.3647 52.5916 59.9078 53.4935C60.5079 54.3867 61.3566 55.0852 62.3493 55.5028C63.6948 56.0844 65.1501 56.3692 66.6159 56.3377C67.7788 56.3152 68.9374 56.1883 70.0775 55.9583C71.0971 55.821 72.0964 55.561 73.0534 55.1839C73.2324 55.0414 73.3219 55.1307 73.3222 55.4516V60.5419C73.3309 60.6807 73.3031 60.8193 73.2412 60.9438C73.18 61.0411 73.0975 61.1235 73 61.1849C71.9383 61.6544 70.8209 61.9868 69.675 62.174C68.1182 62.4658 66.5359 62.6003 64.9522 62.5755C62.4909 62.5755 60.4162 62.2068 58.7281 61.4695L58.5656 61.3968C56.9426 60.6832 55.5093 59.6007 54.38 58.2356C53.325 56.9494 52.5401 55.4643 52.0722 53.8688C51.6091 52.294 51.3743 50.6611 51.375 49.0197C51.3699 47.2275 51.6507 45.446 52.2068 43.742C52.7423 42.0798 53.5891 40.5344 54.7022 39.1877C55.8003 37.857 57.1733 36.7786 58.7271 36.0262C60.3012 35.2587 62.1618 34.9832 64.3084 34.9832C66.0887 34.9387 67.8569 35.2863 69.4875 36.0012C70.8583 36.5849 72.0652 37.4949 73.0025 38.6517C73.882 39.7842 74.5542 41.063 74.9881 42.4291C75.4107 43.7455 75.6279 45.1189 75.6322 46.5013C75.6322 47.2875 75.6054 48.002 75.5518 48.6447L75.504 49.1951L75.454 49.7174L75.4243 49.982L75.4175 50.0378C75.4035 50.1559 75.3467 50.2648 75.2577 50.3438C75.1687 50.4228 75.0538 50.4665 74.9347 50.4665L74.7875 50.4696L74.604 50.479L74.4612 50.4893L74.1275 50.5177L73.8343 50.5467C73.7545 50.555 73.6717 50.5628 73.5859 50.5701L73.32 50.591L73.0359 50.6097L72.7343 50.6253L72.415 50.6387L72.2484 50.6443L71.9025 50.6537C71.5603 50.6621 71.2097 50.6409 70.85 50.6147L70.3043 50.5748C70.0235 50.5542 69.7418 50.5432 69.4603 50.5417ZM58.8884 45.6604H66.1965L66.819 45.6564L67.2422 45.6505L67.5162 45.6442L67.8237 45.6336C68.0989 45.6062 68.3647 45.5183 68.6018 45.3762V45.0548C68.5913 44.6358 68.5191 44.2205 68.3875 43.8224C68.0979 42.9083 67.5158 42.1143 66.7305 41.5625C65.9452 41.0107 65.0002 40.7316 64.0406 40.768C63.1374 40.7135 62.2378 40.9226 61.4516 41.3698C60.6654 41.817 60.0264 42.483 59.6128 43.2864C59.2449 44.0338 59.0003 44.8352 58.8884 45.6604Z" fill="#9999FF"/>
</svg>
