<svg width="90" height="90" viewBox="0 0 90 90" fill="none" xmlns="http://www.w3.org/2000/svg">
<path d="M16.7588 76.3271L10.4751 5.84521H79.5251L73.2351 76.3165L44.9582 84.1558L16.7588 76.3271Z" fill="#1572B6"/>
<path d="M45.0005 78.1637L67.8499 71.8287L73.2255 11.6074H45.0005V78.1637Z" fill="#33A9DC"/>
<path d="M45.0005 37.1432H56.4392L57.2292 28.2913H45.0005V19.647H66.6767L66.4692 21.9663L64.3442 45.7876H45.0005V37.1432Z" fill="white"/>
<path d="M45.0521 59.5933L45.014 59.6046L35.3871 57.0052L34.7715 50.1108H26.0952L27.3058 63.684L45.0127 68.5983L45.0521 68.5871V59.5933Z" fill="#EBEBEB"/>
<path d="M55.7045 45.4219L54.6632 56.9981L45.022 59.6006V68.5944L62.7432 63.6831L62.8732 62.2225L64.377 45.4219H55.7045Z" fill="white"/>
<path d="M45.0302 19.647V28.2913H24.1502L23.9771 26.3488L23.5833 21.9663L23.3765 19.647H45.0302ZM45.0008 37.1445V45.7888H35.4952L35.3221 43.8463L34.9277 39.4638L34.7215 37.1445H45.0008Z" fill="#EBEBEB"/>
</svg>
