<svg width="92" height="92" viewBox="0 0 92 92" fill="none" xmlns="http://www.w3.org/2000/svg">
<path d="M67.25 6H24.75C14.3947 6 6 14.3947 6 24.75V67.25C6 77.6053 14.3947 86 24.75 86H67.25C77.6053 86 86 77.6053 86 67.25V24.75C86 14.3947 77.6053 6 67.25 6Z" fill="#242938"/>
<mask id="mask0_350_196" style="mask-type:luminance" maskUnits="userSpaceOnUse" x="25" y="14" width="42" height="64">
<path d="M25.0625 14.75H66.7375V77.25H25.0625V14.75Z" fill="white"/>
</mask>
<g mask="url(#mask0_350_196)">
<path d="M35.4837 77.2499C41.2337 77.2499 45.9003 72.5834 45.9003 66.8334V56.4165H35.4837C29.7337 56.4165 25.0669 61.0834 25.0669 66.8334C25.0669 72.5834 29.7337 77.2499 35.4837 77.2499Z" fill="#0ACF83"/>
<path d="M25.0669 46.0001C25.0669 40.2501 29.7337 35.5835 35.4837 35.5835H45.9003V56.4166H35.4837C29.7337 56.4166 25.0669 51.7501 25.0669 46.0001Z" fill="#A259FF"/>
<path d="M25.0669 25.1666C25.0669 19.4166 29.7337 14.75 35.4837 14.75H45.9003V35.5834H35.4837C29.7337 35.5834 25.0669 30.9166 25.0669 25.1666Z" fill="#F24E1E"/>
<path d="M45.9004 14.75H56.317C62.067 14.75 66.7339 19.4166 66.7339 25.1666C66.7339 30.9166 62.067 35.5834 56.317 35.5834H45.9004V14.75Z" fill="#FF7262"/>
<path d="M66.7339 46.0001C66.7339 51.7501 62.067 56.4166 56.317 56.4166C50.567 56.4166 45.9004 51.7501 45.9004 46.0001C45.9004 40.2501 50.567 35.5835 56.317 35.5835C62.067 35.5835 66.7339 40.2501 66.7339 46.0001Z" fill="#1ABCFE"/>
</g>
</svg>
