<svg width="90" height="90" viewBox="0 0 90 90" fill="none" xmlns="http://www.w3.org/2000/svg">
<path d="M16.8981 76.1725L10.645 6.03809H79.355L73.095 76.1618L44.9581 83.9618L16.8981 76.1725Z" fill="#E44D26"/>
<path d="M45 78L67.7362 71.6962L73.0856 11.7725H45V78Z" fill="#F16529"/>
<path d="M45 37.7845H33.6175L32.8313 28.9758H45V20.3745H23.4307L23.6369 22.682L25.7507 46.3864H45V37.7845ZM45 60.1239L44.9619 60.1345L35.3825 57.547L34.7707 50.6876H26.135L27.34 64.1933L44.9607 69.0845L45 69.0739V60.1239Z" fill="#EBEBEB"/>
<path d="M44.9702 37.7845V46.3864H55.5621L54.564 57.542L44.9702 60.1314V69.0808L62.6046 64.1933L62.734 62.7401L64.7552 40.0945L64.9646 37.7845H62.6471H44.9702ZM44.9702 20.3745V28.9758H65.7477L65.9202 27.0433L66.3127 22.682L66.5183 20.3745H44.9702Z" fill="white"/>
</svg>
