<svg width="92" height="90" viewBox="0 0 92 90" fill="none" xmlns="http://www.w3.org/2000/svg">
<path d="M72.7188 6H19.2812C11.9462 6 6 11.9367 6 19.26V70.6152C6 77.9385 11.9462 83.8752 19.2812 83.8752H72.7188C80.0538 83.8752 86 77.9385 86 70.6152V19.26C86 11.9367 80.0538 6 72.7188 6Z" fill="#330000"/>
<path d="M44.7666 52.7343H32.3698L29.8473 60.557C29.8129 60.6997 29.7298 60.826 29.6123 60.914C29.4947 61.0021 29.35 61.0464 29.2032 61.0394H22.9241C22.5662 61.0394 22.441 60.8428 22.5485 60.4497L33.282 29.5873C33.3892 29.2659 33.4965 28.8998 33.6038 28.489C33.7445 27.7739 33.8163 27.0476 33.8185 26.3191C33.8112 26.2681 33.8159 26.2162 33.8322 26.1673C33.8485 26.1185 33.8759 26.0741 33.9124 26.0377C33.9488 26.0013 33.9932 25.9738 34.0422 25.9575C34.0911 25.9412 34.1431 25.9365 34.1941 25.9438H42.7273C42.9773 25.9438 43.1204 26.0332 43.1566 26.2121L55.3388 60.5034C55.4461 60.8611 55.3388 61.0398 55.017 61.0394H48.0401C47.9203 61.0525 47.7999 61.0216 47.7011 60.9526C47.6024 60.8836 47.5322 60.7812 47.5035 60.6644L44.7666 52.7343ZM34.3016 45.9832H42.781L42.6601 45.5848L42.466 44.9539L42.3276 44.5109L42.1066 43.8132L41.637 42.3447L41.2238 41.0427L40.151 37.6512C39.884 36.8082 39.6277 35.9618 39.3823 35.1122L39.186 34.4227L38.9566 33.6074L38.6066 32.3438L38.541 32.1058H38.4876C38.219 33.3918 37.892 34.6651 37.5076 35.9215L36.7113 38.4787L36.2732 39.8914L35.831 41.3216C35.7512 41.5799 35.6715 41.8354 35.592 42.0879L35.3545 42.8361L35.1182 43.5668L34.8832 44.2794L34.6495 44.9742C34.572 45.203 34.4946 45.4287 34.4173 45.6512L34.3016 45.9832ZM62.5832 31.6234C62.0359 31.6453 61.4901 31.5516 60.9815 31.3485C60.4729 31.1453 60.0129 30.8374 59.6316 30.4447C59.2517 30.0347 58.9565 29.5539 58.7631 29.0298C58.5696 28.5057 58.4818 27.9486 58.5045 27.3905C58.485 26.838 58.5825 26.2876 58.7906 25.7752C58.9986 25.2629 59.3126 24.8001 59.712 24.4171C60.4823 23.6788 61.5082 23.2657 62.576 23.2637L62.6904 23.2649C63.9785 23.2649 64.9894 23.6489 65.7229 24.4168C66.093 24.816 66.3807 25.284 66.5695 25.7943C66.7582 26.3046 66.8443 26.847 66.8229 27.3905C66.8456 27.9509 66.7552 28.5101 66.557 29.0348C66.3588 29.5596 66.0568 30.0391 65.6691 30.445C65.2779 30.8299 64.8135 31.1329 64.3032 31.3359C63.7929 31.539 63.2471 31.6381 62.6979 31.6275L62.5832 31.6234ZM58.8801 60.5034V34.8919C58.8799 34.5703 59.023 34.4096 59.3095 34.4096H65.9107C66.1967 34.4096 66.3399 34.5703 66.3401 34.8919V60.5034C66.3401 60.8611 66.197 61.0398 65.9107 61.0394H59.3632C59.0582 61.0394 58.8977 60.879 58.8816 60.5583L58.8801 60.5034Z" fill="#FF9A00"/>
</svg>
