<svg width="67" height="90" viewBox="0 0 67 90" fill="none" xmlns="http://www.w3.org/2000/svg">
<path d="M23.0268 66.8437C23.0268 66.8437 19.9852 68.6183 25.1915 69.2187C31.4989 69.9406 34.7223 69.8372 41.6732 68.5172C41.6732 68.5172 43.5007 69.6668 46.0525 70.6627C30.4711 77.3625 10.7881 70.2745 23.0268 66.8437ZM21.1228 58.1006C21.1228 58.1006 17.7113 60.6342 22.9215 61.1748C29.6592 61.8721 34.98 61.9293 44.1872 60.1505C44.1872 60.1505 45.4607 61.4458 47.4632 62.1542C28.6239 67.6812 7.64054 62.5901 21.1228 58.1006Z" fill="#5382A1"/>
<path d="M37.1738 43.2695C41.0133 47.7042 36.1651 51.695 36.1651 51.695C36.1651 51.695 45.9137 46.646 41.4366 40.3232C37.2552 34.4272 34.0484 31.4973 51.4081 21.3965C51.4081 21.3965 24.1592 28.2245 37.1738 43.2695Z" fill="#E76F00"/>
<path d="M57.782 73.3103C57.782 73.3103 60.0329 75.1708 55.303 76.6103C46.3092 79.3439 17.8693 80.1694 9.96875 76.7192C7.12882 75.4799 12.4547 73.7597 14.1299 73.3985C15.877 73.0184 16.8756 73.0894 16.8756 73.0894C13.7171 70.857 -3.53907 77.4725 8.11034 79.3668C39.8796 84.5358 66.0225 77.0395 57.782 73.3103ZM24.4892 49.0415C24.4892 49.0415 10.0231 52.489 19.3666 53.7406C23.3116 54.2705 31.1759 54.1506 38.5015 53.5347C44.4883 53.0283 50.4998 51.9509 50.4998 51.9509C50.4998 51.9509 48.3888 52.858 46.8616 53.9043C32.1713 57.7806 3.79225 55.9772 11.9622 52.0122C18.8716 48.6614 24.4892 49.0415 24.4892 49.0415ZM50.4401 63.5946C65.3738 55.8091 58.469 48.3276 53.6497 49.3357C52.4684 49.5822 51.9418 49.7957 51.9418 49.7957C51.9418 49.7957 52.3803 49.1067 53.2178 48.8084C62.7518 45.4454 70.0843 58.7268 50.14 63.9869C50.14 63.9869 50.3712 63.78 50.4401 63.5946Z" fill="#5382A1"/>
<path d="M41.4369 5.08545C41.4369 5.08545 49.7073 13.386 33.5928 26.1493C20.6708 36.3879 30.6461 42.2256 33.5875 48.8954C26.0446 42.0677 20.509 36.057 24.2228 30.4631C29.6734 22.251 44.7737 18.27 41.4369 5.08545Z" fill="#E76F00"/>
<path d="M25.9566 84.6911C40.2909 85.6118 62.3026 84.1803 62.8239 77.3755C62.8239 77.3755 61.8218 79.9554 50.9774 82.0039C38.7429 84.3138 23.6534 84.0442 14.7036 82.5637C14.7036 82.5637 16.5355 84.0851 25.9566 84.6911Z" fill="#5382A1"/>
</svg>
