<svg width="92" height="92" viewBox="0 0 92 92" fill="none" xmlns="http://www.w3.org/2000/svg">
<path d="M6 6H86V86H6V6Z" fill="#F7DF1E"/>
<path d="M27.035 72.8537L33.1569 69.1488C34.3381 71.2429 35.4125 73.0147 37.9897 73.0147C40.46 73.0147 42.0178 72.0484 42.0178 68.2896V42.7279H49.5356V68.396C49.5356 76.1825 44.9712 79.7268 38.3119 79.7268C32.2978 79.7268 28.8072 76.6127 27.035 72.8537ZM53.619 72.0482L59.7403 68.5041C61.3519 71.1357 63.4462 73.0688 67.1512 73.0688C70.2665 73.0688 72.2528 71.5113 72.2528 69.3632C72.2528 66.7857 70.2122 65.8725 66.7753 64.3694L64.8962 63.5632C59.4722 61.2547 55.8744 58.3546 55.8744 52.2328C55.8744 46.594 60.1703 42.2979 66.8831 42.2979C71.6625 42.2979 75.0994 43.9628 77.5694 48.3125L71.7156 52.0718C70.4265 49.7627 69.0309 48.8499 66.8828 48.8499C64.6809 48.8499 63.2847 50.2462 63.2847 52.0718C63.2847 54.3271 64.6809 55.2407 67.9028 56.6369L69.7822 57.4422C76.1728 60.1813 79.7706 62.9735 79.7706 69.256C79.7706 76.0229 74.4544 79.7278 67.3122 79.7278C60.3312 79.7278 55.8206 76.3982 53.619 72.0482Z" fill="black"/>
</svg>
