<svg width="92" height="90" viewBox="0 0 92 90" fill="none" xmlns="http://www.w3.org/2000/svg">
<path d="M20.1666 6H71.8334C79.6666 6 86 12.3233 86 20.1439V69.7313C86 77.5519 79.6666 83.8752 71.8334 83.8752H20.1666C12.3334 83.8752 6 77.5519 6 69.7313V20.1439C6 12.3233 12.3334 6 20.1666 6Z" fill="#00005B"/>
<path d="M25 60.6125V26.3674C25 26.1343 25.1 26.0014 25.3334 26.0014L25.8172 26.0005L26.1916 25.9974L26.4556 25.9924L26.7369 25.9852L27.0391 25.9746L27.2 25.9681C27.5 25.9556 27.8047 25.9478 28.1156 25.9412L29.0703 25.9213C29.1789 25.9188 29.2883 25.9158 29.3988 25.9125L29.7331 25.9016C30.0331 25.8908 30.3406 25.8825 30.6556 25.8766L31.6222 25.8595L32.2913 25.8448L32.6334 25.8348C33.3222 25.813 33.9962 25.8055 34.6653 25.803L35.6666 25.8018C38.4 25.8018 40.6666 26.1344 42.5334 26.8332C44.2067 27.4007 45.7324 28.3329 47 29.5623C48.0739 30.6384 48.9037 31.9322 49.4334 33.3562C49.9334 34.754 50.2 36.1851 50.2 37.6827C50.2 40.5448 49.5333 42.9077 48.2 44.7714C46.8666 46.6349 45 48.0327 42.8334 48.8314C40.6422 49.6358 38.2331 49.9421 35.6059 49.9618H34.6531L34.2822 49.958L34.0444 49.9524L33.9044 49.9465L33.7787 49.939L33.6666 49.9297C33.5946 49.9227 33.5225 49.9173 33.4503 49.9134L33.2878 49.9063L33.1097 49.9016L32.8125 49.8975L32.2334 49.8963V60.5792C32.2666 60.8122 32.1 61.0119 31.8666 61.0453H25.4C25.1334 61.0453 25 60.9121 25 60.6125ZM32.2666 32.4243V43.6063L32.6584 43.6344C32.9606 43.6575 33.2635 43.6705 33.5666 43.6731H35.3334C36.6334 43.6731 37.9334 43.4734 39.1666 43.0741C40.2334 42.7746 41.1666 42.1421 41.9 41.31C42.6 40.4782 42.9334 39.3466 42.9334 37.8824C42.9647 36.8423 42.6987 35.8149 42.1666 34.9203C41.6238 34.0913 40.8663 33.4454 39.9534 33.0707L39.8334 33.0233C38.6 32.5241 37.2666 32.3244 35.9 32.3578L35.1294 32.3588L34.7672 32.3609L34.4212 32.3656L34.0928 32.3731C33.9326 32.3773 33.7795 32.3833 33.6334 32.3912C33.5618 32.3876 33.4901 32.3847 33.4184 32.3825L33.2188 32.3781L33.125 32.3775L32.9481 32.3784L32.7875 32.3828L32.7131 32.3859L32.5766 32.3937L32.4566 32.4031L32.4025 32.408L32.3078 32.419L32.2666 32.4243ZM54.8666 34.3546H60.7C61.0147 34.3546 61.2703 34.5624 61.3819 34.8379L61.4 34.8872C61.5 35.1533 61.5666 35.4195 61.6 35.719C61.6666 36.0519 61.7334 36.4179 61.7666 36.7508L61.7947 37.0728C61.8166 37.3476 61.8334 37.64 61.8334 37.9489C62.7881 36.8361 63.9329 35.9014 65.2147 35.188L65.4 35.0869C66.9334 34.2214 68.7 33.789 70.4666 33.789C70.7 33.7556 70.9 33.9219 70.9334 34.1549V40.7778C70.9334 41.0439 70.7666 41.1437 70.4 41.1437C69.28 41.1125 68.1312 41.1977 67.0344 41.4255L66.8 41.4766C65.8333 41.6763 64.9 41.9758 64 42.3752C63.3666 42.6747 62.7666 43.0741 62.3 43.6063V60.5792C62.3 60.9121 62.1666 61.0453 61.8666 61.0453H55.3C55.0334 61.0784 54.8 60.9121 54.7666 60.6459V42.0757C54.7666 41.277 54.7666 40.4449 54.7334 39.5797L54.7134 38.9307L54.6866 37.6328C54.6816 37.4165 54.6749 37.2002 54.6666 36.9838C54.6666 36.2182 54.6 35.4862 54.5334 34.7206C54.5 34.5543 54.6 34.388 54.7666 34.3546C54.7666 34.3262 54.8156 34.3222 54.8506 34.3421L54.8666 34.3546Z" fill="#9999FF"/>
</svg>
