<svg width="20" height="20" viewBox="0 0 20 20" fill="none" xmlns="http://www.w3.org/2000/svg">
<path d="M6.5 8.99988L10 11.0001M6.5 8.99988L3 11.0001M6.5 8.99988V5.00025M10 11.0001V14.9998M10 11.0001L6.5 13.0004M10 11.0001L13.5 8.99988M10 11.0001V6.99875M10 11.0001L13.5 12.9995M3 11.0001V14.9998L6.5 17M3 11.0001L6.5 13.0004M6.5 5.00025L10 3L13.5 5.00025M6.5 5.00025L10 6.99875M10 14.9998L13.5 17M10 14.9998L6.5 17M13.5 17V12.9995M13.5 17L17 14.9998V10.9993M6.5 13.0004V17M13.5 8.99988V5.00025M13.5 8.99988L17 10.9993M13.5 5.00025L10 6.99875M13.5 12.9995L17 10.9993" stroke="white" stroke-width="1.75" stroke-linecap="round" stroke-linejoin="round"/>
</svg>
