<svg width="44" height="43" viewBox="0 0 44 43" fill="none" xmlns="http://www.w3.org/2000/svg">
<path fill-rule="evenodd" clip-rule="evenodd" d="M21.5491 4C11.8575 4 4 11.8579 4 21.5509C4 29.3048 9.0274 35.883 16.002 38.2023C16.8804 38.3647 17.1999 37.8243 17.1999 37.3576C17.1999 36.9418 17.1846 35.8389 17.1769 34.3728C12.2948 35.4343 11.2648 32.0197 11.2648 32.0197C10.4665 29.9924 9.31585 29.4533 9.31585 29.4533C7.7224 28.3652 9.4369 28.3864 9.4369 28.3864C11.1982 28.511 12.1252 30.1945 12.1252 30.1945C13.6903 32.8765 16.2332 32.1002 17.2327 31.6538C17.3915 30.5176 17.8461 29.7458 18.3469 29.3062C14.4504 28.8634 10.3535 27.3577 10.3535 20.6329C10.3535 18.7163 11.0371 17.1494 12.1594 15.9223C11.9798 15.4804 11.3764 13.6961 12.3317 11.2787C12.3317 11.2787 13.805 10.8071 17.1585 13.0792C18.5575 12.6881 20.0592 12.4929 21.5518 12.487C23.0422 12.4933 24.5443 12.6881 25.9452 13.0792C29.2963 10.8071 30.7674 11.2787 30.7674 11.2787C31.725 13.6961 31.122 15.4804 30.942 15.9223C32.067 17.1494 32.7456 18.7163 32.7456 20.6329C32.7456 27.3734 28.6429 28.8584 24.7333 29.2913C25.3624 29.8336 25.924 30.9068 25.924 32.5444C25.924 34.8893 25.9029 36.7816 25.9029 37.3571C25.9029 37.8274 26.2183 38.3741 27.1093 38.2C34.0762 35.8757 39.1 29.3026 39.1 21.5509C39.1 11.8579 31.2426 4 21.5491 4Z" fill="#0033FF"/>
</svg>
