<svg width="43" height="43" viewBox="0 0 43 43" fill="none" xmlns="http://www.w3.org/2000/svg">
<path d="M21.3291 4C26.0459 4 26.627 4.03418 28.4727 4.10254C30.2842 4.1709 31.5488 4.47852 32.6768 4.92285C33.8389 5.36719 34.7959 5.94824 35.7529 6.90527C36.71 7.8623 37.291 8.81934 37.7354 9.98145C38.1797 11.1094 38.4873 12.374 38.5557 14.1855C38.624 16.0312 38.6582 16.6123 38.6582 21.3291C38.6582 26.0459 38.624 26.627 38.5557 28.4727C38.4873 30.2842 38.1797 31.5488 37.7354 32.6768C37.291 33.8389 36.71 34.7959 35.7529 35.7529C34.7959 36.71 33.8389 37.291 32.6768 37.7354C31.5488 38.1797 30.2842 38.4873 28.4727 38.5557C26.627 38.624 26.0459 38.6582 21.3291 38.6582C16.6123 38.6582 16.0312 38.624 14.1855 38.5557C12.374 38.4873 11.1094 38.1797 9.98145 37.7354C8.81934 37.291 7.8623 36.71 6.90527 35.7529C5.94824 34.7959 5.36719 33.8389 4.92285 32.6768C4.47852 31.5488 4.1709 30.2842 4.10254 28.4727C4.03418 26.627 4 26.0459 4 21.3291C4 16.6123 4.03418 16.0312 4.10254 14.1855C4.1709 12.374 4.47852 11.1094 4.92285 9.98145C5.36719 8.81934 5.94824 7.8623 6.90527 6.90527C7.8623 5.94824 8.81934 5.36719 9.98145 4.92285C11.1094 4.47852 12.374 4.1709 14.1855 4.10254C16.0312 4.03418 16.6123 4 21.3291 4ZM21.3291 6.25586C16.4072 6.25586 15.8262 6.29004 13.9121 6.3584C12.1348 6.42676 11.1436 6.76855 10.4941 7.00781C8.81934 7.69141 7.69141 8.81934 7.00781 10.4941C6.76855 11.1436 6.42676 12.1348 6.3584 13.9121C6.29004 15.8262 6.25586 16.4072 6.25586 21.3291C6.25586 26.251 6.29004 26.832 6.3584 28.7461C6.42676 30.5234 6.76855 31.5146 7.00781 32.1641C7.69141 33.8389 8.81934 34.9668 10.4941 35.6504C11.1436 35.8896 12.1348 36.2314 13.9121 36.2998C15.8262 36.3682 16.4072 36.4023 21.3291 36.4023C26.251 36.4023 26.832 36.3682 28.7461 36.2998C30.5234 36.2314 31.5146 35.8896 32.1641 35.6504C33.8389 34.9668 34.9668 33.8389 35.6504 32.1641C35.8896 31.5146 36.2314 30.5234 36.2998 28.7461C36.3682 26.832 36.4023 26.251 36.4023 21.3291C36.4023 16.4072 36.3682 15.8262 36.2998 13.9121C36.2314 12.1348 35.8896 11.1436 35.6504 10.4941C34.9668 8.81934 33.8389 7.69141 32.1641 7.00781C31.5146 6.76855 30.5234 6.42676 28.7461 6.3584C26.832 6.29004 26.251 6.25586 21.3291 6.25586ZM21.3291 28.2676C25.1572 28.2676 28.2676 25.1572 28.2676 21.3291C28.2676 17.501 25.1572 14.3906 21.3291 14.3906C17.501 14.3906 14.3906 17.501 14.3906 21.3291C14.3906 25.1572 17.501 28.2676 21.3291 28.2676ZM21.3291 12.4424C26.251 12.4424 30.2158 16.4072 30.2158 21.3291C30.2158 26.251 26.251 30.2158 21.3291 30.2158C16.4072 30.2158 12.4424 26.251 12.4424 21.3291C12.4424 16.4072 16.4072 12.4424 21.3291 12.4424ZM32.6768 12.1006C32.6768 13.2627 31.7197 14.1514 30.5576 14.1514C29.3955 14.1514 28.5068 13.2627 28.5068 12.1006C28.5068 10.9385 29.3955 9.98145 30.5576 9.98145C31.7197 9.98145 32.6768 10.9385 32.6768 12.1006Z" fill="#0033FF"/>
</svg>
