<svg width="50" height="50" viewBox="0 0 50 50" fill="none" xmlns="http://www.w3.org/2000/svg">
<path d="M40.0058 7H10.0654C8.42939 7 7 8.17715 7 9.79393V39.8008C7 41.4264 8.42939 42.875 10.0654 42.875H39.997C41.6418 42.875 42.875 41.4168 42.875 39.8008V9.79393C42.8846 8.17715 41.6418 7 40.0058 7ZM18.1204 36.9036H12.981V20.924H18.1204V36.9036ZM15.7285 18.4944H15.6917C14.0469 18.4944 12.9818 17.27 12.9818 15.7373C12.9818 14.1766 14.0749 12.981 15.7565 12.981C17.4382 12.981 18.4672 14.1678 18.504 15.7373C18.5032 17.27 17.4382 18.4944 15.7285 18.4944ZM36.9036 36.9036H31.7642V28.1663C31.7642 26.073 31.0162 24.6428 29.1568 24.6428C27.7362 24.6428 26.8954 25.6038 26.5214 26.5399C26.3813 26.8762 26.3437 27.3342 26.3437 27.8019V36.9036H21.2043V20.924H26.3437V23.1478C27.0916 22.0827 28.2599 20.55 30.9786 20.55C34.3523 20.55 36.9044 22.7738 36.9044 27.5681L36.9036 36.9036Z" fill="#0033FF"/>
</svg>
