<svg width="47" height="40" viewBox="0 0 47 40" fill="none" xmlns="http://www.w3.org/2000/svg">
<path d="M32.3887 4C34.3398 4 37.0137 5.08398 38.2783 6.34863L39.3623 7.43262C40.6992 8.8418 41.5303 11.1904 41.6748 13.2139V14.5508C41.3857 18.7422 38.459 21.9219 35.0625 23.0781C33.1113 23.7646 32.4971 23.3672 31.9189 23.8008L24.6924 29.1123C24.3672 29.3652 24.2588 29.4014 24.0781 29.5459C23.5723 33.6289 19.9951 35.9053 16.4541 35.9053C13.8887 35.9053 11.3955 34.7129 10.0586 32.1475C9.58887 31.2441 9.55273 30.9189 9.37207 30.4854L5.79492 29.04C5.50586 28.9316 5.14453 28.7148 5.07227 28.2812L5 27.8477V20.1514C5.03613 19.3926 5.46973 18.9951 6.04785 18.9951C6.19238 18.9951 6.33691 19.0312 6.51758 19.0674C8.72168 19.9707 10.9619 20.8018 13.1299 21.7412L13.708 21.4883C14.9004 20.9824 15.5869 20.9102 16.8877 20.9102C17.0684 20.6572 17.3213 20.2959 17.4658 20.0791L20.6816 15.4902C20.9346 15.165 21.8018 13.9365 22.0908 13.4307C22.3076 10.2148 23.3193 8.55273 25.3066 6.5293C26.8604 5.04785 29.6064 4 32.3887 4ZM16.707 22.5C15.4785 22.5 15.1172 22.6445 13.6719 23.2588C13.4912 23.3311 13.3106 23.3672 13.166 23.3672C12.7324 23.3672 12.2988 23.1143 11.9375 22.9697C10.167 22.2471 8.36035 21.5244 6.58984 20.8018V27.6309L10.167 29.0762C11.0703 29.5098 10.8535 30.3047 11.4678 31.4248C12.4795 33.4121 14.4668 34.3154 16.4902 34.3154C19.2363 34.3154 21.9824 32.6172 22.4521 29.5459L22.5244 29.1484C22.6328 28.4619 23.1025 28.2812 23.7168 27.8115L30.9795 22.5C32.0273 21.7412 32.8945 22.1387 34.5566 21.5605C37.375 20.585 39.832 17.9473 40.085 14.4424V13.2861C39.9766 11.6602 39.2539 9.78125 38.2061 8.55273L37.1582 7.50488C35.8936 6.34863 33.7979 5.58984 31.7383 5.58984C30.6543 5.58984 29.5342 5.80664 28.5586 6.27637C25.4873 7.79395 23.8252 10.251 23.5361 14.0811C23.3193 14.4785 22.1631 16.1406 21.9463 16.4297L18.7666 20.9824C18.2246 21.5605 18.2246 22.3916 17.3213 22.5H16.707ZM16.3818 32.7256C15.5869 32.7256 14.7559 32.3281 14.2861 32.0029C13.8887 31.7139 13.0938 31.0635 12.9492 30.5576C13.8164 30.7744 15.0088 31.6055 16.3457 31.6055C17.0684 31.6055 17.8633 31.3164 18.6582 30.5938C19.3447 29.9434 19.7061 29.0039 19.7061 28.0645C19.5615 25.752 17.8994 24.7764 15.9482 24.2344C16.0205 24.126 15.9844 24.0898 16.165 24.0898H16.5625C19.2002 24.0898 20.9346 26.1494 20.9346 28.3896C20.9346 30.5576 19.417 32.7256 16.3818 32.7256ZM27.3301 13.5752C27.3301 10.9375 29.4619 8.76953 32.0996 8.76953C34.7373 8.76953 36.9053 10.9375 36.9053 13.5752C36.9053 16.2129 34.7373 18.3447 32.0996 18.3447C29.4619 18.3447 27.3301 16.2129 27.3301 13.5752ZM28.9199 13.5752C28.9199 15.3457 30.3291 16.7549 32.0996 16.7549C33.8701 16.7549 35.3154 15.3457 35.3154 13.5752C35.3154 11.8047 33.8701 10.3594 32.0996 10.3594C30.3291 10.3594 28.9199 11.8047 28.9199 13.5752Z" fill="#0033FF"/>
</svg>
