<svg width="44" height="48" viewBox="0 0 44 48" fill="none" xmlns="http://www.w3.org/2000/svg">
<path fill-rule="evenodd" clip-rule="evenodd" d="M36.4119 9.11062C36.574 8.92521 36.698 8.70968 36.7769 8.47634C36.8557 8.24299 36.8879 7.9964 36.8714 7.75065C36.8549 7.50489 36.7903 7.26478 36.681 7.04403C36.5718 6.82328 36.4201 6.6262 36.2347 6.46406C36.0493 6.30192 35.8337 6.17789 35.6004 6.09904C35.3671 6.02019 35.1205 5.98808 34.8747 6.00454C34.629 6.02099 34.3888 6.08569 34.1681 6.19493C33.9473 6.30418 33.7503 6.45584 33.5881 6.64125L24.0069 17.5913L15.875 6.75C15.7004 6.51713 15.4739 6.32813 15.2135 6.19795C14.9532 6.06777 14.6661 6 14.375 6H6.875C6.52679 6 6.18546 6.09697 5.88925 6.28003C5.59305 6.4631 5.35367 6.72503 5.19795 7.03647C5.04223 7.34792 4.97631 7.69658 5.00758 8.04339C5.03885 8.39019 5.16608 8.72143 5.375 9L17.4444 25.0913L7.33813 36.6412C7.17598 36.8267 7.05195 37.0422 6.9731 37.2755C6.89426 37.5089 6.86215 37.7555 6.8786 38.0012C6.89505 38.247 6.95975 38.4871 7.069 38.7078C7.17824 38.9286 7.3299 39.1257 7.51531 39.2878C7.70072 39.45 7.91625 39.574 8.1496 39.6528C8.38294 39.7317 8.62954 39.7638 8.87529 39.7473C9.12105 39.7309 9.36116 39.6662 9.58191 39.5569C9.80266 39.4477 9.99973 39.296 10.1619 39.1106L19.7431 28.1587L27.875 39C28.0497 39.2329 28.2761 39.4219 28.5365 39.552C28.7968 39.6822 29.0839 39.75 29.375 39.75H36.875C37.2232 39.75 37.5645 39.653 37.8607 39.47C38.157 39.2869 38.3963 39.025 38.552 38.7135C38.7078 38.4021 38.7737 38.0534 38.7424 37.7066C38.7112 37.3598 38.5839 37.0286 38.375 36.75L26.3056 20.6587L36.4119 9.11062ZM30.3125 36L10.625 9.75H13.4375L33.125 36H30.3125Z" fill="#0033FF"/>
</svg>
