<svg width="125" height="125" viewBox="0 0 125 125" fill="none" xmlns="http://www.w3.org/2000/svg">
<path d="M25.1302 62.6304L45.3125 82.8127C46.2674 83.7675 46.7448 84.9828 46.7448 86.4585C46.7448 87.9342 46.2674 89.1495 45.3125 90.1043C44.3576 91.0592 43.1424 91.5366 41.6667 91.5366C40.191 91.5366 38.9757 91.0592 38.0208 90.1043L14.0625 66.146C13.5417 65.6252 13.1719 65.0609 12.9531 64.4533C12.7344 63.8456 12.6285 63.1946 12.6354 62.5002C12.6424 61.8057 12.7517 61.1547 12.9635 60.547C13.1753 59.9394 13.5434 59.3752 14.0677 58.8543L38.026 34.896C39.0677 33.8543 40.3056 33.3335 41.7396 33.3335C43.1736 33.3335 44.4097 33.8543 45.4479 34.896C46.4861 35.9377 47.0069 37.1755 47.0104 38.6095C47.0139 40.0436 46.4931 41.2797 45.4479 42.3179L25.1302 62.6304ZM99.8698 62.37L79.6875 42.1877C78.7326 41.2328 78.2552 40.0175 78.2552 38.5418C78.2552 37.0661 78.7326 35.8509 79.6875 34.896C80.6424 33.9411 81.8576 33.4637 83.3333 33.4637C84.809 33.4637 86.0243 33.9411 86.9792 34.896L110.938 58.8543C111.458 59.3752 111.828 59.9394 112.047 60.547C112.266 61.1547 112.373 61.8057 112.37 62.5002C112.366 63.1946 112.259 63.8456 112.047 64.4533C111.835 65.0609 111.465 65.6252 110.938 66.146L86.9792 90.1043C85.9375 91.146 84.7222 91.646 83.3333 91.6043C81.9444 91.5627 80.7292 91.0193 79.6875 89.9741C78.6458 88.929 78.125 87.6929 78.125 86.2658C78.125 84.8387 78.6458 83.6009 79.6875 82.5523L99.8698 62.37Z" fill="#0033FF"/>
</svg>
